<svg width="129" height="129" viewBox="0 0 129 129" fill="none" xmlns="http://www.w3.org/2000/svg">
<path fill-rule="evenodd" clip-rule="evenodd" d="M17.2498 0.790283C7.86092 0.790283 0.249756 8.40144 0.249756 17.7903V33.9454H0.249719V44.8098H0.249756V64.7903V111.79C0.249756 121.179 7.86092 128.79 17.2498 128.79H64.4995H111.749C121.138 128.79 128.749 121.179 128.749 111.79V64.7903V17.7903C128.749 8.40144 121.138 0.790283 111.749 0.790283H64.4995H17.2498ZM0.249756 44.8098H27.8026C29.7752 49.6096 34.4968 52.9893 40.0078 52.9893C41.8017 52.9893 43.5119 52.6312 45.0709 51.9826L78.5781 85.4897C77.9352 87.0428 77.5805 88.7453 77.5805 90.5308C77.5805 97.8155 83.4859 103.721 90.7707 103.721C98.0555 103.721 103.961 97.8155 103.961 90.5308C103.961 83.246 98.0555 77.3405 90.7707 77.3405C89.2761 77.3405 87.8396 77.5891 86.5002 78.0472L53.2628 44.8098H78.628C80.6006 49.6096 85.3222 52.9893 90.8331 52.9893C98.1179 52.9893 104.023 47.0838 104.023 39.7991C104.023 32.5143 98.1179 26.6088 90.8331 26.6088C85.6507 26.6088 81.1664 29.5975 79.0097 33.9454H51.8312C49.6745 29.5975 45.1902 26.6088 40.0078 26.6088C34.8253 26.6088 30.341 29.5975 28.1843 33.9454H0.249756V44.8098Z" fill="#F0E3CA"/>
</svg>
